<svg xmlns="http://www.w3.org/2000/svg" viewBox="0 0 512 512"><path d="M498.849 240.677l-23.193-16.219v-64.874c0-4.342-3.52-7.862-7.862-7.862H397.09c-4.342 0-7.862 3.52-7.862 7.862v29.011c0 4.342 3.52 7.862 7.862 7.862h53.599v40.123c0 4.342 3.52 7.862 7.862 7.862h23.193zM294.025 223.726v64.874l-23.193 16.219c-1.29.903-2.771 1.342-4.252 1.342-1.826 0-3.652-.713-5.034-2.119-2.639-2.998-2.439-7.543.559-10.182l13.85-12.168v-58.965c0-4.342-3.52-7.862-7.862-7.862h-67.233v-27.149h69.464c4.342 0 7.862-3.52 7.862-7.862 0-4.342-3.52-7.862-7.862-7.862h-69.464v-40.123c0-4.342-3.52-7.862-7.862-7.862H175.74c-4.342 0-7.862 3.52-7.862 7.862v27.149h-31.992c-4.342 0-7.862 3.52-7.862 7.862v267.906c0 4.342 3.52 7.862 7.862 7.862h315.22c4.342 0 7.862-3.52 7.862-7.862V223.726H294.025z" fill="#009fe3"/></svg>