<?xml version="1.0" encoding="UTF-8"?>
<svg width="700pt" height="700pt" version="1.1" viewBox="0 0 700 700" xmlns="http://www.w3.org/2000/svg" xmlns:xlink="http://www.w3.org/1999/xlink">
 
 <g>
  <path d="m567.13 220.43-197.04-173.8c-6.125-4.9219-13.539-7.3867-20.957-7.3867-7.4648 0-14.926 2.4922-21.055 7.4688l-195.15 173.72c-7.8125 6.3438-12.348 15.863-12.348 25.922v218.64c0 18.445 14.953 33.398 33.398 33.398h123.2v-33.398h-123.2v-218.64l195.16-173.71 197.05 173.8v218.56l-179.4-0.003906v-65.367c16.414-6.6484 28.242-22.715 28.242-41.512 0-24.754-20.059-44.801-44.801-44.801-24.742 0-44.801 20.047-44.801 44.801 0 18.805 11.344 34.871 27.758 41.512v65.375l0.003906 33.395h213c18.445 0 33.402-14.953 33.402-33.398v-218.56c0-10.102-4.5859-19.672-12.453-26.012z"/>
  <path d="m350.22 258.32c-34.344 0-65.84 17.328-84.258 46.344-4.6641 7.3477-2.4883 17.074 4.8555 21.738 2.6211 1.6562 5.5391 2.4531 8.4297 2.4531 5.2148 0 10.309-2.582 13.312-7.3125 12.605-19.863 34.164-31.723 57.664-31.723 23.414 0 44.922 11.789 57.551 31.535 4.6875 7.3242 14.41 9.4688 21.758 4.7812 7.332-4.6875 9.4648-14.426 4.7812-21.758-18.457-28.84-49.891-46.059-84.094-46.059z"/>
  <path d="m217.84 274.64c-4.8555 7.6953-2.5586 17.859 5.1289 22.727 2.7344 1.7266 5.7734 2.5469 8.7812 2.5469 5.4648 0 10.809-2.7148 13.945-7.6758 22.797-36.094 61.867-57.641 104.52-57.641 42.465 0 81.445 21.402 104.29 57.262 4.8828 7.668 15.07 9.9219 22.742 5.0391 7.6719-4.8906 9.9297-15.07 5.0391-22.742-28.918-45.398-78.289-72.504-132.07-72.504-54.023-0.007813-103.5 27.281-132.38 72.988z"/>

 </g>
</svg>
